<svg class="hero-svg" viewBox="0 0 860 592" preserveAspectRatio="xMidYMid slice" xmlns="http://www.w3.org/2000/svg">
    <style>
      /* Per-color overrides for pulse feel */
      .blob-teal {
        fill: #063f42;
        animation-duration: 12s;
      }
      .blob-orange {
        fill: #f66a58;
        animation-duration: 9s;
      }
      .blob-lavender {
        fill: #b668dc;
        animation-duration: 14s;
      }
      .blob-yellow {
        fill: #e4dc35;
        animation-duration: 8s;
      }
      .blob-pink {
        fill: #f06c78;
        animation-duration: 11s;
      }
    </style>
      <path class="svg-blob blob-teal" d="M448.799 121.936C423.275 120.053 398.02 128.183 378.388 144.603L366.885 154.223C358.508 161.23 352.548 170.695 349.851 181.278C344.521 202.186 352.652 224.214 370.287 236.645L382.436 245.209C395.151 254.172 404.699 266.933 409.709 281.66L422.928 320.515C430.773 343.575 445.737 363.548 465.664 377.556L512.685 410.61C527.344 420.915 536.225 437.579 536.606 455.493L536.666 458.325C536.883 468.507 533.836 478.491 527.97 486.817C505.703 518.422 528.307 562 566.969 562H587.862C607.879 562 626.508 551.774 637.254 534.887L675.348 475.025C684.982 459.885 698.026 447.21 713.436 438.014L738.638 422.974C747.383 417.755 757.377 415 767.561 415H797.355C812.071 415 824 403.071 824 388.355C824 374.565 813.478 363.053 799.743 361.817L762.861 358.497C739.362 356.383 719.481 340.253 712.568 317.694C707.75 301.975 696.492 289.035 681.589 282.09L633.632 259.741C613.008 250.13 595.699 234.617 583.895 215.165L561.747 178.667C542.455 146.876 508.98 126.376 471.894 123.64L448.799 121.936Z" style="animation-delay:0s"></path>
      <path class="svg-blob blob-yellow" d="M58.9733 356.083C41.3879 363.675 30 380.996 30 400.151V446.639C30 465.733 41.3178 483.012 58.8221 490.641L82.0392 500.76C89.1107 503.842 95.3352 508.583 100.186 514.581L120.548 539.763C122.4 542.053 123.471 544.876 123.605 547.818C123.94 555.193 130.017 561 137.399 561H252.252C272.912 561 291.255 547.78 297.789 528.181L299.456 523.18C302.267 514.747 307.365 507.26 314.182 501.554L347.105 473.994C360.908 462.44 361.58 441.443 348.544 429.029L343.906 424.613C340.89 421.741 339.183 417.759 339.183 413.594C339.183 405.191 332.371 398.379 323.968 398.379H315.948C313.209 398.379 310.492 397.895 307.922 396.949L157.617 341.62C152.555 339.757 147.215 338.76 141.822 338.672L111.184 338.169C104.375 338.058 97.6215 339.396 91.3702 342.095L58.9733 356.083Z" style="animation-delay:-15s"></path>
      <path class="svg-blob blob-orange" d="M523.513 17.6602C504.626 20.106 490.836 36.7246 491.916 55.7381C492.309 62.651 494.669 69.3076 498.72 74.9235L502.925 80.7545C508.671 88.7221 517.029 94.4234 526.544 96.8668L593.207 113.985C599.644 115.638 605.596 118.795 610.576 123.196L723.619 223.115C728.907 227.789 735.286 231.054 742.169 232.611L798.735 245.405C825.005 251.347 850 231.374 850 204.44V191.954C850 177.65 842.72 164.329 830.68 156.605L734.231 94.7234C732.532 93.6328 730.913 92.4211 729.387 91.0976L643.232 16.348C634.179 8.49311 622.201 4.88049 610.314 6.41978L523.513 17.6602Z" style="animation-delay:-5s"></path>
      <path class="svg-blob blob-teal" d="M56.8856 72.823C56.3052 80.8039 57.8088 88.7985 61.2491 96.0231L61.4256 96.3938C64.4382 102.72 68.807 108.306 74.2216 112.753L84.1844 120.937C90.7046 126.293 97.8435 130.848 105.448 134.504L130.045 146.329C140.508 151.36 152.083 153.631 163.67 152.929C173.763 152.317 183.593 149.466 192.447 144.581L279.772 96.4014C289.701 90.9234 297.786 82.6277 303.006 72.5607L306.429 65.9584C308.121 62.6943 309.062 59.0925 309.18 55.4176C309.629 41.5144 298.48 30 284.569 30H102.936C78.7354 30 58.641 48.686 56.8856 72.823Z" style="animation-delay:-3s"></path>
      <path class="svg-blob blob-lavender" d="M829 494.524C829 464.196 808.474 437.713 779.105 430.148L777.932 429.846C768.102 427.314 757.83 427.014 747.869 428.967L737.843 430.933C720.842 434.266 704.833 441.46 691.052 451.96L688.031 454.262C676.101 463.351 665.842 474.445 657.711 487.048L631.417 527.804C630.478 529.259 629.317 530.558 627.975 531.652C615.925 541.483 622.876 561 638.427 561H766.759C801.134 561 829 533.134 829 498.759V494.524Z" style="animation-delay:-10s"></path>
      <path class="svg-blob blob-orange" d="M294.466 296.084C284.051 296.277 281.571 310.714 291.324 314.372L355.241 338.34C356.411 338.779 357.544 339.315 358.626 339.943L439.608 386.912C450.45 393.201 457.36 404.563 457.956 417.083L458.771 434.183C458.912 437.152 457.418 439.96 454.878 441.503C447.935 445.718 450.808 456.388 458.929 456.548L475.799 456.878C479.722 456.955 483.47 455.258 486 452.26L502.868 432.268C506.809 427.596 508.838 421.607 508.548 415.501C508.201 408.224 504.596 401.49 498.733 397.166L458.23 367.294C438.829 352.987 425.702 331.742 421.585 307.99L418.898 292.488C416.401 278.084 408.309 265.252 396.387 256.791C372.15 239.591 338.657 244.593 320.503 268.125L301.77 292.409C300.019 294.679 297.332 296.031 294.466 296.084Z" style="animation-delay:-8s"></path>
      <path class="svg-blob blob-lavender" d="M534.266 411.24C532.793 407.833 530.288 404.973 527.104 403.063C515.674 396.205 501.045 403.918 500.247 417.224L499.582 428.299C499.208 434.53 496.468 440.383 491.923 444.661L490.496 446.004C485.039 451.14 477.827 454 470.333 454H449.333C443.165 454 437.052 455.153 431.309 457.401C421.989 461.048 413.995 467.436 408.382 475.721L400.614 487.189C397.607 491.628 396 496.866 396 502.227V503.269C396 509.514 393.588 515.517 389.267 520.026C374.51 535.424 385.424 561 406.752 561H452.81C459.542 561 465 555.542 465 548.81C465 544.05 467.771 539.725 472.096 537.736L500.937 524.469C510.17 520.222 518.211 513.762 524.347 505.662L528.835 499.738C536.179 490.044 541.184 478.784 543.46 466.836L544.314 462.352C546.716 449.742 545.276 436.701 540.181 424.918L534.266 411.24Z" style="animation-delay:-13s"></path>
      <path class="svg-blob blob-yellow" d="M318.603 30C308.39 30 300.168 38.388 300.372 48.5994L300.618 60.8751C300.851 72.5566 294.341 83.3295 283.891 88.5546L261.804 99.5981C252.4 104.3 245.496 112.847 242.878 123.03L241.005 130.314C239.129 137.608 241.051 145.356 246.116 150.928C253.083 158.591 264.4 160.469 273.468 155.466L279.869 151.934C284.547 149.353 289.812 148 295.154 148C312.721 148 327 162.241 327 179.808V204.301C327 205.97 327.894 207.511 329.344 208.339C331.801 209.744 334.933 208.646 335.976 206.014L351.611 166.554C353.843 160.92 357.283 155.844 361.689 151.683L389.054 125.838C390.341 124.622 391.835 123.647 393.465 122.957L403.315 118.79C409.418 116.208 410.46 107.999 405.196 103.974C402.123 101.623 397.862 101.604 394.767 103.925L386.113 110.416C382.145 113.391 377.319 115 372.359 115H369.643C353.051 115 339.387 101.963 338.607 85.3897L336.818 47.3776C336.36 37.6509 328.341 30 318.603 30Z" style="animation-delay:-18s"></path>
      <path class="svg-blob blob-orange" d="M80.3927 174.064C71.863 179.118 65.4822 187.312 62.7584 196.846L61.608 200.872C59.9066 206.827 59.9843 213.15 61.8316 219.061C63.2587 223.628 65.6997 227.813 68.9721 231.304L71.0766 233.548C76.2748 239.093 82.7878 243.237 90.0127 245.596L115.545 253.933C123.833 256.639 131.868 260.063 139.561 264.166L166.454 278.509C170.781 280.817 175.495 282.312 180.362 282.92L185.722 283.59C187.882 283.86 190.075 283.664 192.153 283.015C199.49 280.722 203.967 273.32 202.592 265.757L200.947 256.707C199.703 249.864 195.732 243.821 189.946 239.964L168.615 225.743C160.922 220.615 154.106 214.279 148.43 206.981L130.089 183.4C124.848 176.662 117.5 171.875 109.219 169.805C99.4686 167.367 89.0387 168.94 80.3927 174.064Z" style="animation-delay:-11s"></path>
      <path class="svg-blob blob-lavender" d="M676 14L733 44L763 70L793 90.5L829 119L797.5 32L676 14Z" style="animation-delay:-16s"></path>
      <path class="svg-blob blob-yellow" d="M711.517 284.903C706.677 286.663 703.949 291.795 705.198 296.792L713.138 328.551C715.002 336.008 719.086 342.723 724.849 347.808L725.533 348.411C730.413 352.717 736.403 355.567 742.823 356.637C748.199 357.533 753.71 357.153 758.912 355.527L759.551 355.328C764.465 353.792 769.01 351.264 772.906 347.899L784.7 337.714C787.521 335.277 789.686 332.171 790.995 328.68L793.549 321.869C794.46 319.44 794.147 316.72 792.708 314.562C791.608 312.912 789.939 311.725 788.02 311.227L770.864 306.78C766.307 305.598 761.923 303.831 757.82 301.524L738.366 290.581C734.154 288.212 729.562 286.594 724.795 285.799L716.606 284.434C714.898 284.15 713.145 284.311 711.517 284.903Z" style="animation-delay:-21s"></path>
      <path class="svg-blob blob-yellow" d="M548.223 133.469C543.793 130.438 538.319 135.495 540.991 140.151L592.98 230.738C594.972 234.208 597.661 237.228 600.879 239.606L617.553 251.931C618.512 252.64 619.572 253.202 620.696 253.599C632.725 257.844 642.208 242.892 633.239 233.821L583.763 183.783C582.59 182.597 581.525 181.309 580.579 179.934L549.533 134.776C549.181 134.263 548.737 133.82 548.223 133.469Z" style="animation-delay:-24s"></path>
      <path class="svg-blob blob-teal" d="M341.309 559.409C341.138 561.164 342.422 562.725 344.177 562.895L347.008 563.171C348.278 563.295 349.555 563.013 350.654 562.366L357.3 558.456C359.547 557.134 361.611 555.522 363.438 553.662L377.495 539.351C381.891 534.876 385.825 529.969 389.239 524.706L398.042 511.133C399.763 508.48 400.874 505.479 401.297 502.345L403.449 486.384C403.895 483.076 401.506 480.059 398.184 479.736C394.946 479.421 392.067 481.79 391.752 485.027L390.724 495.587C390.5 497.884 389.797 500.109 388.66 502.118L387.797 503.642C386.3 506.286 384.329 508.631 381.982 510.561L377.984 513.85C374.296 516.884 371.037 520.406 368.299 524.319L347.815 553.588C347.118 554.584 346.174 555.382 345.075 555.904L343.117 556.834C342.104 557.315 341.418 558.293 341.309 559.409Z" style="animation-delay:-6s"></path>
      <path class="svg-blob blob-pink" d="M775.05 429.475C773.405 430.298 772.808 432.347 773.754 433.924L774.483 435.138C774.823 435.706 775.286 436.19 775.836 436.557L782.937 441.291C785.637 443.091 788.534 444.575 791.572 445.715L792.552 446.082C799.438 448.664 805.69 452.69 810.89 457.89L818.463 465.463C818.82 465.82 819.219 466.131 819.652 466.391C823.766 468.859 829 465.896 829 461.098V452.207C829 446.017 823.983 441 817.793 441H812.979C810.366 441 807.793 440.361 805.483 439.138L796.476 434.37C793.509 432.799 790.322 431.685 787.022 431.067L777.044 429.196C776.367 429.069 775.666 429.167 775.05 429.475Z" style="animation-delay:-7s"></path>
      <path class="svg-blob blob-lavender" d="M231.385 140.462C230.536 140.179 229.6 140.4 228.968 141.032L221.332 148.668C217.897 152.103 215.842 156.679 215.557 161.528L215.329 165.399C215.113 169.087 215.712 172.779 217.084 176.21C218.348 179.37 220.241 182.241 222.648 184.648L223.424 185.424C225.13 187.13 227.1 188.55 229.259 189.63L231.775 190.888C233.238 191.619 234.852 192 236.488 192H237.419C239.094 192 240.725 191.457 242.065 190.451L243.178 189.617C243.713 189.215 244.113 188.66 244.325 188.025C244.736 186.793 244.384 185.435 243.427 184.558L237.85 179.446C234.76 176.613 233 172.613 233 168.42V142.702C233 141.686 232.349 140.783 231.385 140.462Z" style="animation-delay:-19s"></path>
      <path class="svg-blob blob-pink" d="M356.744 423.878C354.937 420.665 352.445 417.889 349.446 415.747L341.894 410.353C340.692 409.495 339.175 409.206 337.742 409.565C334.731 410.317 333.109 413.587 334.331 416.44L334.554 416.958C334.848 417.646 335 418.386 335 419.133V452.081C335 455.941 333.858 459.714 331.717 462.925C328.708 467.437 323.961 470.497 318.608 471.373L274.789 478.544C273.025 478.832 271.485 479.902 270.598 481.454L269.835 482.788C268.787 484.623 269.269 486.952 270.96 488.22C271.637 488.728 272.453 489.019 273.299 489.054L316.15 490.84C318.711 490.946 321.275 490.804 323.808 490.414C329.854 489.484 335.601 487.164 340.598 483.637L341.498 483.001C347.09 479.054 351.689 473.864 354.934 467.837L359.781 458.836C362.538 453.714 363.808 447.923 363.445 442.118C363.152 437.433 361.805 432.875 359.504 428.784L356.744 423.878Z" style="animation-delay:-10s"></path>
    </svg>